<?xml version="1.0" encoding="UTF-8"?>
<svg id="Calque_2" data-name="Calque 2" xmlns="http://www.w3.org/2000/svg" viewBox="0 0 858.9 1326.25">
  <defs>
    <style>
      .cls-1 {
        fill: none;
      }

      .cls-2 {
        fill: #3b787b;
      }

      .cls-3 {
        fill: #f39200;
      }

      .cls-4 {
        fill: #fff;
      }

      .cls-5 {
        fill: #489199;
      }

      .cls-6 {
        fill: #f9b233;
      }
    </style>
  </defs>
  <g id="Calque_1-2" data-name="Calque 1">
    <g>
      <rect class="cls-5" width="858.9" height="1207.56"/>
      <g>
        <rect class="cls-6" x="63.34" y="64.99" width="229.37" height="91.06"/>
        <rect class="cls-6" x="292.7" y="156.06" width="285.83" height="58.97"/>
        <rect class="cls-6" x="578.54" y="64.99" width="218.03" height="91.06"/>
        <rect class="cls-6" x="578.54" y="215.02" width="218.03" height="164.93"/>
        <rect class="cls-6" x="292.7" y="379.95" width="285.83" height="59.95"/>
        <rect class="cls-6" x="63.34" y="439.9" width="229.37" height="154.42"/>
        <rect class="cls-6" x="292.7" y="594.32" width="285.83" height="62.21"/>
        <rect class="cls-6" x="578.54" y="656.53" width="218.03" height="31.11"/>
        <rect class="cls-6" x="292.7" y="687.64" width="285.83" height="154.42"/>
        <rect class="cls-6" x="63.34" y="842.05" width="229.37" height="62.21"/>
        <rect class="cls-6" x="292.7" y="904.26" width="285.83" height="31.11"/>
        <rect class="cls-6" x="578.54" y="935.37" width="218.03" height="96.07"/>
        <rect class="cls-6" x="288.84" y="1031.44" width="289.7" height="62.21"/>
        <rect class="cls-6" x="63.44" y="1093.65" width="229.64" height="50.54"/>
      </g>
      <rect class="cls-3" x="292.7" y="439.9" width="285.83" height="51.74"/>
      <rect class="cls-3" x="578.54" y="904.26" width="218.03" height="31.11"/>
      <rect class="cls-3" x="63.34" y="810.95" width="229.37" height="31.11"/>
      <rect class="cls-3" x="63.44" y="1031.44" width="229.27" height="62.21"/>
      <g>
        <rect class="cls-1" x="573.75" y="213.55" width="237.08" height="102.04"/>
        <path class="cls-4" d="M627.27,287.44h-49.47c.07-6,1.52-11.25,4.35-15.73,2.83-4.48,6.69-8.38,11.59-11.7,2.35-1.72,4.79-3.4,7.35-5.02,2.55-1.62,4.9-3.36,7.04-5.23s3.9-3.88,5.28-6.05c1.38-2.17,2.1-4.67,2.17-7.5,0-1.31-.16-2.71-.47-4.19-.31-1.48-.92-2.86-1.81-4.14-.9-1.28-2.14-2.34-3.73-3.21-1.59-.86-3.66-1.29-6.21-1.29-2.35,0-4.29.47-5.85,1.4-1.55.93-2.79,2.21-3.72,3.83-.93,1.62-1.62,3.54-2.07,5.74-.45,2.21-.71,4.59-.78,7.14h-11.8c0-4,.54-7.71,1.61-11.13,1.07-3.42,2.67-6.37,4.81-8.85,2.14-2.48,4.74-4.43,7.81-5.85,3.07-1.41,6.64-2.12,10.71-2.12,4.42,0,8.11.72,11.08,2.17,2.96,1.45,5.36,3.28,7.19,5.49,1.83,2.21,3.12,4.61,3.88,7.19.76,2.59,1.14,5.06,1.14,7.4,0,2.9-.45,5.52-1.35,7.87-.9,2.35-2.11,4.5-3.62,6.47-1.52,1.97-3.24,3.78-5.18,5.43s-3.93,3.21-6,4.66-4.14,2.83-6.21,4.14c-2.07,1.31-3.98,2.62-5.74,3.93-1.76,1.31-3.29,2.67-4.61,4.09-1.31,1.42-2.21,2.92-2.69,4.5h35.29v10.56Z"/>
        <path class="cls-4" d="M660.08,213.54c5.18,0,9.4,1.19,12.68,3.57,3.28,2.38,5.83,5.42,7.66,9.11,1.83,3.69,3.07,7.75,3.73,12.16.65,4.42.98,8.69.98,12.83s-.33,8.42-.98,12.83c-.66,4.42-1.9,8.47-3.73,12.16-1.83,3.69-4.38,6.73-7.66,9.11-3.28,2.38-7.5,3.57-12.68,3.57s-9.4-1.19-12.68-3.57c-3.28-2.38-5.83-5.42-7.66-9.11-1.83-3.69-3.07-7.75-3.73-12.16-.66-4.42-.98-8.69-.98-12.83s.33-8.42.98-12.83c.66-4.42,1.9-8.47,3.73-12.16,1.83-3.69,4.38-6.73,7.66-9.11,3.28-2.38,7.5-3.57,12.68-3.57ZM660.08,279.06c2.55,0,4.69-.74,6.42-2.22,1.72-1.48,3.09-3.48,4.09-6,1-2.52,1.71-5.47,2.12-8.85.41-3.38.62-6.97.62-10.76s-.21-7.37-.62-10.71c-.41-3.35-1.12-6.3-2.12-8.85-1-2.55-2.37-4.57-4.09-6.05-1.73-1.48-3.87-2.23-6.42-2.23s-4.78.74-6.47,2.23c-1.69,1.48-3.04,3.5-4.04,6.05s-1.71,5.5-2.12,8.85c-.41,3.35-.62,6.92-.62,10.71s.21,7.38.62,10.76c.41,3.38,1.12,6.33,2.12,8.85,1,2.52,2.35,4.52,4.04,6,1.69,1.48,3.85,2.22,6.47,2.22Z"/>
        <path class="cls-4" d="M742.36,287.44h-49.47c.07-6,1.52-11.25,4.35-15.73,2.83-4.48,6.69-8.38,11.59-11.7,2.35-1.72,4.79-3.4,7.35-5.02,2.55-1.62,4.9-3.36,7.04-5.23s3.9-3.88,5.28-6.05c1.38-2.17,2.1-4.67,2.17-7.5,0-1.31-.16-2.71-.47-4.19-.31-1.48-.92-2.86-1.81-4.14-.9-1.28-2.14-2.34-3.73-3.21-1.59-.86-3.66-1.29-6.21-1.29-2.35,0-4.29.47-5.85,1.4-1.55.93-2.79,2.21-3.72,3.83-.93,1.62-1.62,3.54-2.07,5.74-.45,2.21-.71,4.59-.78,7.14h-11.8c0-4,.54-7.71,1.61-11.13,1.07-3.42,2.67-6.37,4.81-8.85,2.14-2.48,4.74-4.43,7.81-5.85,3.07-1.41,6.64-2.12,10.71-2.12,4.42,0,8.11.72,11.08,2.17,2.96,1.45,5.36,3.28,7.19,5.49,1.83,2.21,3.12,4.61,3.88,7.19.76,2.59,1.14,5.06,1.14,7.4,0,2.9-.45,5.52-1.35,7.87-.9,2.35-2.11,4.5-3.62,6.47-1.52,1.97-3.24,3.78-5.18,5.43s-3.93,3.21-6,4.66-4.14,2.83-6.21,4.14c-2.07,1.31-3.98,2.62-5.74,3.93-1.76,1.31-3.29,2.67-4.61,4.09-1.31,1.42-2.21,2.92-2.69,4.5h35.29v10.56Z"/>
        <path class="cls-4" d="M759.13,214.99h37.47v10.56h-28.67l-3.73,18.42.21.21c1.59-1.79,3.6-3.16,6.05-4.09,2.45-.93,4.88-1.4,7.3-1.4,3.59,0,6.79.6,9.62,1.81,2.83,1.21,5.21,2.9,7.14,5.07,1.93,2.17,3.4,4.75,4.4,7.71,1,2.97,1.5,6.18,1.5,9.63,0,2.9-.46,5.88-1.4,8.95-.93,3.07-2.42,5.87-4.45,8.38-2.04,2.52-4.64,4.59-7.81,6.21s-6.97,2.43-11.38,2.43c-3.52,0-6.78-.47-9.78-1.4s-5.64-2.33-7.92-4.19c-2.28-1.86-4.09-4.16-5.43-6.88-1.35-2.73-2.09-5.92-2.22-9.57h11.8c.34,3.93,1.69,6.95,4.04,9.06,2.34,2.11,5.45,3.16,9.31,3.16,2.48,0,4.59-.41,6.31-1.24,1.72-.83,3.12-1.97,4.19-3.42,1.07-1.45,1.83-3.14,2.28-5.07.45-1.93.67-4,.67-6.21,0-2-.28-3.92-.83-5.74-.55-1.83-1.38-3.43-2.48-4.81-1.1-1.38-2.54-2.48-4.29-3.31s-3.81-1.24-6.16-1.24c-2.48,0-4.81.47-6.99,1.4s-3.74,2.67-4.71,5.23h-11.8l7.76-39.64Z"/>
      </g>
      <g>
        <rect class="cls-1" x="576.77" y="155.85" width="220.67" height="46.66"/>
        <path class="cls-4" d="M580.38,160.62c.5-.98,1.17-1.81,2.02-2.49.85-.67,1.83-1.19,2.93-1.54s2.25-.53,3.45-.53c1.7,0,3.15.23,4.36.68,1.2.46,2.18,1.06,2.93,1.8s1.3,1.6,1.65,2.55c.35.95.53,1.93.53,2.93,0,1.41-.39,2.69-1.17,3.85-.78,1.16-1.83,2.03-3.15,2.62,1.88.59,3.27,1.55,4.18,2.88.91,1.33,1.37,2.97,1.37,4.91,0,1.53-.27,2.88-.81,4.05s-1.28,2.16-2.2,2.97c-.93.81-2.02,1.42-3.28,1.83s-2.61.62-4.05.62-2.89-.19-4.18-.57-2.41-.97-3.37-1.76-1.7-1.78-2.24-2.97c-.54-1.19-.81-2.57-.81-4.16,0-1.85.47-3.45,1.41-4.82s2.29-2.35,4.05-2.97c-1.32-.53-2.38-1.39-3.17-2.57-.79-1.19-1.19-2.49-1.19-3.89,0-1.29.25-2.43.75-3.41ZM584.36,182.89c1.25,1.07,2.84,1.61,4.78,1.61.94,0,1.79-.15,2.57-.46.78-.31,1.45-.73,2.02-1.28s1.01-1.18,1.32-1.91c.31-.73.46-1.54.46-2.42s-.17-1.63-.51-2.35c-.34-.72-.8-1.34-1.39-1.87-.59-.53-1.27-.95-2.04-1.25-.78-.31-1.61-.46-2.49-.46s-1.77.14-2.57.42c-.81.28-1.51.68-2.11,1.21-.6.53-1.07,1.16-1.41,1.89-.34.73-.51,1.55-.51,2.46,0,1.88.62,3.35,1.87,4.42ZM584.03,166.39c.29.63.69,1.15,1.19,1.56.5.41,1.08.72,1.76.92.67.21,1.39.31,2.16.31,1.5,0,2.73-.44,3.7-1.32s1.45-2.11,1.45-3.7-.49-2.78-1.47-3.59c-.98-.81-2.24-1.21-3.76-1.21-.73,0-1.44.1-2.11.31-.67.21-1.25.51-1.74.92-.48.41-.87.91-1.17,1.5s-.44,1.28-.44,2.07c0,.85.15,1.59.44,2.22Z"/>
        <path class="cls-4" d="M624.87,173.27v3.52h-12.72v-3.52h12.72Z"/>
        <path class="cls-4" d="M643.52,183.26c1.09.82,2.38,1.23,3.87,1.23,2.29,0,4-.99,5.15-2.97,1.14-1.98,1.78-5.01,1.89-9.09l-.09-.09c-.7,1.32-1.7,2.37-2.99,3.15s-2.7,1.17-4.22,1.17-2.99-.26-4.22-.77c-1.23-.51-2.27-1.22-3.1-2.13s-1.47-2.01-1.89-3.3c-.43-1.29-.64-2.7-.64-4.22s.25-2.87.75-4.11c.5-1.25,1.2-2.32,2.11-3.21.91-.89,1.99-1.59,3.26-2.09,1.26-.5,2.64-.75,4.13-.75s2.85.23,4.14.68,2.42,1.24,3.39,2.35c.97,1.12,1.74,2.63,2.31,4.55.57,1.92.86,4.36.86,7.33,0,5.4-.86,9.54-2.57,12.43-1.72,2.89-4.47,4.33-8.25,4.33-2.61,0-4.78-.66-6.51-1.98s-2.71-3.33-2.95-6.03h3.74c.15,1.53.76,2.7,1.85,3.52ZM653.36,163.77c-.28-.85-.69-1.61-1.23-2.27s-1.21-1.18-2-1.56c-.79-.38-1.71-.57-2.77-.57-1.12,0-2.06.21-2.84.62-.78.41-1.41.96-1.89,1.65-.48.69-.84,1.47-1.05,2.35-.22.88-.33,1.8-.33,2.77,0,.85.15,1.67.46,2.46.31.79.73,1.5,1.28,2.11.54.62,1.19,1.11,1.94,1.47.75.37,1.58.55,2.49.55.97,0,1.85-.18,2.64-.55.79-.37,1.47-.87,2.03-1.5.56-.63.98-1.36,1.28-2.2s.44-1.71.44-2.62c0-.97-.14-1.88-.42-2.73Z"/>
        <path class="cls-4" d="M693.68,187.18c-.64.38-1.54.57-2.68.57-.97,0-1.74-.27-2.31-.81-.57-.54-.86-1.43-.86-2.66-1.03,1.23-2.22,2.12-3.59,2.66-1.36.54-2.84.81-4.42.81-1.03,0-2-.12-2.93-.35s-1.72-.6-2.4-1.1c-.68-.5-1.21-1.15-1.61-1.96s-.59-1.78-.59-2.93c0-1.29.22-2.35.66-3.17.44-.82,1.02-1.49,1.74-2,.72-.51,1.54-.9,2.46-1.17.92-.26,1.87-.48,2.84-.66,1.03-.21,2-.36,2.93-.46s1.74-.25,2.44-.44c.7-.19,1.26-.47,1.67-.84.41-.37.62-.9.62-1.61,0-.82-.15-1.48-.46-1.98-.31-.5-.7-.88-1.19-1.14-.48-.26-1.03-.44-1.63-.53-.6-.09-1.2-.13-1.78-.13-1.58,0-2.9.3-3.96.9-1.06.6-1.63,1.74-1.72,3.41h-3.74c.06-1.41.35-2.6.88-3.56.53-.97,1.23-1.75,2.11-2.35.88-.6,1.88-1.03,3.01-1.3s2.34-.4,3.63-.4c1.03,0,2.05.07,3.06.22s1.93.45,2.75.9c.82.45,1.48,1.09,1.98,1.91.5.82.75,1.89.75,3.2v11.68c0,.88.05,1.52.15,1.93s.45.61,1.04.61c.32,0,.7-.06,1.14-.18v2.9ZM687.61,175.52c-.47.35-1.09.61-1.85.77-.76.16-1.56.29-2.4.39-.84.1-1.68.22-2.53.35-.85.13-1.61.34-2.29.63-.68.29-1.23.71-1.65,1.25-.43.54-.64,1.28-.64,2.21,0,.61.12,1.13.38,1.55.25.42.57.77.97,1.03.4.26.86.45,1.39.57.53.12,1.08.17,1.67.17,1.23,0,2.29-.17,3.17-.5.88-.33,1.6-.76,2.16-1.27.56-.51.97-1.07,1.23-1.66.26-.6.4-1.16.4-1.69v-3.81Z"/>
        <path class="cls-4" d="M696.63,171.23c.47-1.45,1.17-2.71,2.11-3.78.94-1.07,2.1-1.91,3.47-2.53,1.38-.62,2.96-.92,4.75-.92s3.41.31,4.78.92c1.36.62,2.51,1.46,3.45,2.53.94,1.07,1.64,2.33,2.11,3.78s.71,3.01.71,4.69-.24,3.23-.71,4.66c-.47,1.44-1.17,2.69-2.11,3.76-.94,1.07-2.09,1.91-3.45,2.51-1.37.6-2.96.9-4.78.9s-3.37-.3-4.75-.9-2.54-1.44-3.47-2.51c-.94-1.07-1.64-2.32-2.11-3.76-.47-1.44-.7-2.99-.7-4.66s.23-3.23.7-4.69ZM700.44,179.59c.37,1.07.87,1.96,1.52,2.68.64.72,1.4,1.27,2.27,1.65s1.78.57,2.75.57,1.88-.19,2.75-.57,1.62-.93,2.27-1.65c.65-.72,1.15-1.61,1.52-2.68.37-1.07.55-2.29.55-3.67s-.18-2.6-.55-3.67c-.37-1.07-.87-1.97-1.52-2.71-.64-.73-1.4-1.29-2.27-1.67-.87-.38-1.78-.57-2.75-.57s-1.88.19-2.75.57c-.87.38-1.62.94-2.27,1.67-.64.73-1.15,1.64-1.52,2.71-.37,1.07-.55,2.3-.55,3.67s.18,2.6.55,3.67Z"/>
        <path class="cls-4" d="M737.72,187.27v-3.61h-.09c-.79,1.41-1.8,2.44-3.04,3.1s-2.68.99-4.36.99c-1.5,0-2.74-.2-3.74-.59-1-.4-1.8-.96-2.42-1.69-.62-.73-1.05-1.61-1.3-2.62-.25-1.01-.37-2.13-.37-3.37v-14.96h3.74v15.4c0,1.41.41,2.52,1.23,3.34s1.95,1.23,3.39,1.23c1.14,0,2.13-.18,2.97-.53.84-.35,1.53-.85,2.09-1.5.56-.64.97-1.4,1.25-2.27.28-.87.42-1.81.42-2.84v-12.85h3.74v22.75h-3.52ZM733.85,155.1l4.58,6.29h-3.7l-3.04-4.22-3.08,4.22h-3.39l4.53-6.29h4.09Z"/>
        <path class="cls-4" d="M756.6,164.52v3.3h-4.53v14.12c0,.44.04.79.11,1.06.07.26.21.47.42.62.21.15.49.24.86.29s.84.07,1.43.07h1.72v3.3h-2.86c-.97,0-1.8-.07-2.48-.2-.69-.13-1.25-.37-1.67-.73-.43-.35-.74-.85-.95-1.5-.21-.64-.31-1.5-.31-2.55v-14.48h-3.87v-3.3h3.87v-6.82h3.74v6.82h4.53Z"/>
      </g>
      <g>
        <rect class="cls-1" x="58.8" y="829.52" width="123.86" height="102.04"/>
        <path class="cls-4" d="M82.4,860.98c1.93.07,3.86-.07,5.8-.41,1.93-.34,3.66-.95,5.18-1.81,1.52-.86,2.74-2.05,3.67-3.57.93-1.52,1.4-3.38,1.4-5.59,0-3.11-1.05-5.59-3.16-7.45-2.11-1.86-4.81-2.79-8.12-2.79-2.07,0-3.87.41-5.38,1.24-1.52.83-2.78,1.95-3.78,3.36-1,1.41-1.74,3-2.23,4.76-.48,1.76-.69,3.57-.62,5.44h-11.8c.14-3.52.79-6.78,1.97-9.78,1.17-3,2.78-5.61,4.81-7.81,2.03-2.21,4.5-3.93,7.4-5.18,2.9-1.24,6.17-1.86,9.83-1.86,2.83,0,5.6.41,8.33,1.24,2.73.83,5.17,2.04,7.35,3.62,2.17,1.59,3.92,3.61,5.23,6.05,1.31,2.45,1.97,5.26,1.97,8.44,0,3.66-.83,6.85-2.48,9.57-1.66,2.73-4.24,4.71-7.76,5.95v.21c4.14.83,7.36,2.88,9.68,6.16,2.31,3.28,3.47,7.26,3.47,11.95,0,3.45-.69,6.54-2.07,9.26-1.38,2.73-3.24,5.04-5.59,6.94-2.35,1.9-5.07,3.36-8.18,4.4-3.1,1.04-6.38,1.55-9.83,1.55-4.21,0-7.88-.61-11.02-1.81-3.14-1.21-5.76-2.91-7.87-5.12-2.11-2.21-3.71-4.86-4.81-7.97-1.1-3.11-1.69-6.55-1.76-10.35h11.8c-.14,4.42.95,8.09,3.26,11.02,2.31,2.93,5.78,4.4,10.4,4.4,3.93,0,7.23-1.12,9.88-3.36,2.66-2.24,3.98-5.43,3.98-9.57,0-2.83-.55-5.07-1.66-6.73-1.1-1.66-2.55-2.91-4.35-3.78-1.79-.86-3.81-1.4-6.05-1.61-2.24-.21-4.54-.27-6.88-.21v-8.8Z"/>
        <path class="cls-4" d="M139.94,860.98c1.93.07,3.86-.07,5.8-.41,1.93-.34,3.66-.95,5.18-1.81,1.52-.86,2.74-2.05,3.67-3.57.93-1.52,1.4-3.38,1.4-5.59,0-3.11-1.05-5.59-3.16-7.45-2.11-1.86-4.81-2.79-8.12-2.79-2.07,0-3.87.41-5.38,1.24-1.52.83-2.78,1.95-3.78,3.36-1,1.41-1.74,3-2.23,4.76-.48,1.76-.69,3.57-.62,5.44h-11.8c.14-3.52.79-6.78,1.97-9.78,1.17-3,2.78-5.61,4.81-7.81,2.03-2.21,4.5-3.93,7.4-5.18,2.9-1.24,6.17-1.86,9.83-1.86,2.83,0,5.6.41,8.33,1.24,2.73.83,5.17,2.04,7.35,3.62,2.17,1.59,3.92,3.61,5.23,6.05,1.31,2.45,1.97,5.26,1.97,8.44,0,3.66-.83,6.85-2.48,9.57-1.66,2.73-4.24,4.71-7.76,5.95v.21c4.14.83,7.36,2.88,9.68,6.16,2.31,3.28,3.47,7.26,3.47,11.95,0,3.45-.69,6.54-2.07,9.26-1.38,2.73-3.24,5.04-5.59,6.94-2.35,1.9-5.07,3.36-8.18,4.4-3.1,1.04-6.38,1.55-9.83,1.55-4.21,0-7.88-.61-11.02-1.81-3.14-1.21-5.76-2.91-7.87-5.12-2.11-2.21-3.71-4.86-4.81-7.97-1.1-3.11-1.69-6.55-1.76-10.35h11.8c-.14,4.42.95,8.09,3.26,11.02,2.31,2.93,5.78,4.4,10.4,4.4,3.93,0,7.23-1.12,9.88-3.36,2.66-2.24,3.98-5.43,3.98-9.57,0-2.83-.55-5.07-1.66-6.73-1.1-1.66-2.55-2.91-4.35-3.78-1.79-.86-3.81-1.4-6.05-1.61-2.24-.21-4.54-.27-6.88-.21v-8.8Z"/>
      </g>
      <g>
        <rect class="cls-1" x="175.29" y="823.45" width="31.94" height="46.66"/>
        <path class="cls-4" d="M182.08,845.52c0,.91.13,1.79.39,2.64s.64,1.59,1.16,2.23,1.17,1.15,1.96,1.53c.79.38,1.73.57,2.82.57,1.52,0,2.74-.33,3.66-.98.92-.65,1.62-1.63,2.07-2.94h4.91c-.27,1.28-.74,2.41-1.41,3.41-.67,1-1.47,1.84-2.41,2.53-.94.68-1.99,1.2-3.16,1.55-1.17.35-2.39.52-3.66.52-1.85,0-3.49-.3-4.91-.91-1.43-.61-2.63-1.46-3.62-2.55-.99-1.09-1.73-2.4-2.23-3.91-.5-1.52-.75-3.18-.75-5,0-1.67.26-3.25.8-4.76.53-1.5,1.29-2.82,2.28-3.96.99-1.14,2.18-2.04,3.57-2.71,1.39-.67,2.97-1,4.73-1,1.85,0,3.51.39,4.98,1.16,1.47.77,2.69,1.8,3.66,3.07.97,1.27,1.68,2.74,2.12,4.39.44,1.65.55,3.36.34,5.12h-17.29ZM194.18,842.11c-.06-.82-.24-1.61-.52-2.37-.29-.76-.68-1.42-1.18-1.98-.5-.56-1.11-1.02-1.82-1.36-.71-.35-1.51-.52-2.39-.52s-1.74.16-2.48.48-1.38.76-1.91,1.32c-.53.56-.96,1.22-1.27,1.98-.32.76-.49,1.58-.52,2.46h12.1Z"/>
      </g>
      <rect class="cls-3" x="578.54" y="687.64" width="218.03" height="31.4"/>
      <rect class="cls-2" x="292.7" y="935.37" width="285.83" height="31.4"/>
      <rect class="cls-2" x="63.34" y="594.32" width="229.37" height="31.4"/>
      <rect class="cls-2" x="578.54" y="379.95" width="218.9" height="59.95"/>
      <rect class="cls-2" x="292.7" y="122.46" width="285.83" height="33.6"/>
      <rect class="cls-2" x="578.54" y="1031.8" width="218.03" height="62.21"/>
      <g>
        <rect class="cls-1" x="60.49" y="625.43" width="282.21" height="46.66"/>
        <path class="cls-4" d="M67.17,634.09v3.08h.09c.62-1.26,1.58-2.18,2.9-2.75,1.32-.57,2.77-.86,4.36-.86,1.76,0,3.29.32,4.6.97,1.3.65,2.39,1.52,3.26,2.62.87,1.1,1.52,2.37,1.96,3.81.44,1.44.66,2.96.66,4.58s-.21,3.14-.64,4.58c-.43,1.44-1.07,2.69-1.94,3.76-.87,1.07-1.95,1.91-3.26,2.53-1.31.62-2.82.93-4.55.93-.56,0-1.18-.06-1.87-.18s-1.37-.31-2.05-.57c-.67-.27-1.31-.62-1.91-1.08-.6-.46-1.11-1.02-1.52-1.7h-.09v11.71h-3.74v-31.42h3.74ZM80.61,642.17c-.28-1.01-.7-1.91-1.28-2.71-.57-.79-1.3-1.42-2.2-1.89-.9-.47-1.94-.7-3.15-.7-1.26,0-2.33.25-3.21.75-.88.5-1.6,1.15-2.16,1.96s-.96,1.72-1.21,2.75c-.25,1.03-.37,2.07-.37,3.12,0,1.12.13,2.19.4,3.23s.68,1.96,1.25,2.75c.57.79,1.31,1.43,2.22,1.91s2.01.72,3.3.72,2.37-.25,3.23-.75c.87-.5,1.56-1.16,2.09-1.98.53-.82.91-1.76,1.14-2.82.23-1.06.35-2.14.35-3.26,0-1.06-.14-2.09-.42-3.1Z"/>
        <path class="cls-4" d="M92.78,634.09v4.79h.09c.91-1.85,2.02-3.21,3.34-4.09,1.32-.88,2.99-1.29,5.02-1.23v3.96c-1.5,0-2.77.21-3.83.62-1.06.41-1.91,1.01-2.55,1.8-.65.79-1.12,1.75-1.41,2.88-.29,1.13-.44,2.43-.44,3.89v10.12h-3.74v-22.75h3.52Z"/>
        <path class="cls-4" d="M104.26,630v-4.58h3.74v4.58h-3.74ZM108,634.09v22.75h-3.74v-22.75h3.74Z"/>
        <path class="cls-4" d="M112.01,634.09h4.8l5.46,7.96,5.68-7.96h4.49l-7.83,10.47,8.8,12.28h-4.8l-6.34-9.42-6.34,9.42h-4.53l8.54-11.97-7.92-10.78Z"/>
        <path class="cls-4" d="M152.8,625.42v31.42h-3.74v-31.42h3.74Z"/>
        <path class="cls-4" d="M158.82,630v-4.58h3.74v4.58h-3.74ZM162.56,634.09v22.75h-3.74v-22.75h3.74Z"/>
        <path class="cls-4" d="M172.24,625.42v11.75h.09c.62-1.26,1.58-2.18,2.9-2.75,1.32-.57,2.77-.86,4.36-.86,1.76,0,3.29.32,4.6.97,1.3.65,2.39,1.52,3.26,2.62.87,1.1,1.52,2.37,1.96,3.81.44,1.44.66,2.96.66,4.58s-.21,3.14-.64,4.58c-.43,1.44-1.07,2.69-1.94,3.76-.87,1.07-1.95,1.91-3.26,2.53-1.31.62-2.82.93-4.55.93-.56,0-1.18-.06-1.87-.18s-1.37-.31-2.05-.57c-.67-.27-1.31-.62-1.91-1.08-.6-.46-1.11-1.02-1.52-1.7h-.09v3.04h-3.74v-31.42h3.74ZM185.69,642.17c-.28-1.01-.7-1.91-1.28-2.71-.57-.79-1.3-1.42-2.2-1.89-.9-.47-1.94-.7-3.15-.7-1.26,0-2.33.25-3.21.75-.88.5-1.6,1.15-2.16,1.96s-.96,1.72-1.21,2.75c-.25,1.03-.37,2.07-.37,3.12,0,1.12.13,2.19.4,3.23s.68,1.96,1.25,2.75c.57.79,1.31,1.43,2.22,1.91s2.01.72,3.3.72,2.37-.25,3.23-.75c.87-.5,1.56-1.16,2.09-1.98.53-.82.91-1.76,1.14-2.82.23-1.06.35-2.14.35-3.26,0-1.06-.14-2.09-.42-3.1Z"/>
        <path class="cls-4" d="M197.85,634.09v4.79h.09c.91-1.85,2.02-3.21,3.34-4.09,1.32-.88,2.99-1.29,5.02-1.23v3.96c-1.5,0-2.77.21-3.83.62-1.06.41-1.91,1.01-2.55,1.8-.65.79-1.12,1.75-1.41,2.88-.29,1.13-.44,2.43-.44,3.89v10.12h-3.74v-22.75h3.52Z"/>
        <path class="cls-4" d="M224.43,655.39c-1.7,1.29-3.84,1.94-6.42,1.94-1.82,0-3.4-.29-4.73-.88s-2.46-1.41-3.37-2.46c-.91-1.05-1.59-2.32-2.05-3.78s-.71-3.06-.77-4.8c0-1.73.26-3.31.79-4.75.53-1.44,1.27-2.68,2.22-3.74.95-1.06,2.08-1.88,3.39-2.46,1.3-.59,2.73-.88,4.29-.88,2.02,0,3.7.42,5.04,1.25,1.33.84,2.4,1.9,3.21,3.19.81,1.29,1.36,2.7,1.67,4.22.31,1.53.43,2.98.37,4.36h-17.03c-.03,1,.09,1.94.35,2.84.26.89.69,1.69,1.28,2.38.59.69,1.33,1.24,2.24,1.65.91.41,1.98.62,3.21.62,1.58,0,2.88-.37,3.89-1.1,1.01-.73,1.68-1.85,2-3.34h3.7c-.5,2.55-1.6,4.47-3.3,5.76ZM223.52,640.78c-.34-.79-.79-1.47-1.36-2.05-.57-.57-1.25-1.03-2.02-1.36-.78-.34-1.64-.51-2.57-.51s-1.84.17-2.62.51c-.78.34-1.45.8-2,1.39-.56.59-1,1.27-1.32,2.04-.32.78-.51,1.61-.57,2.49h13.07c-.06-.88-.26-1.71-.59-2.51Z"/>
      </g>
      <rect class="cls-2" x="578.54" y="594.32" width="218.08" height="62.21"/>
      <g>
        <rect class="cls-1" x="666.78" y="594.32" width="141.11" height="46.66"/>
        <path class="cls-4" d="M668.84,609.27c-.38.36-.89.54-1.54.54-.26,0-.5-.02-.73-.07v-1.24c.06,0,.1.02.14.03.04,0,.08,0,.13,0h.31c.32,0,.53-.09.64-.26s.17-.49.17-.94v-9.66h1.45v9.89c0,.78-.19,1.35-.57,1.71ZM667.96,596.08v-1.77h1.45v1.77h-1.45Z"/>
        <path class="cls-4" d="M679.43,606.42c-.25.15-.59.22-1.04.22-.37,0-.67-.11-.89-.31s-.33-.55-.33-1.03c-.4.48-.86.82-1.39,1.03s-1.1.31-1.71.31c-.4,0-.77-.04-1.13-.14-.36-.09-.67-.23-.93-.42-.26-.19-.47-.45-.62-.76-.15-.31-.23-.69-.23-1.13,0-.5.09-.91.26-1.22.17-.32.39-.58.67-.77.28-.2.6-.35.95-.45s.72-.19,1.1-.25c.4-.08.77-.14,1.13-.18.36-.04.67-.1.94-.17.27-.07.49-.18.65-.32s.24-.35.24-.62c0-.32-.06-.57-.18-.77-.12-.19-.27-.34-.46-.44-.19-.1-.4-.17-.63-.2s-.46-.05-.69-.05c-.61,0-1.12.12-1.53.35-.41.23-.63.67-.66,1.32h-1.45c.02-.54.14-1,.34-1.38.21-.37.48-.68.82-.91.34-.23.73-.4,1.16-.5.44-.1.9-.15,1.4-.15.4,0,.79.03,1.18.08s.75.17,1.06.35c.32.18.57.42.77.74s.29.73.29,1.24v4.51c0,.34.02.59.06.75.04.16.17.24.4.24.12,0,.27-.02.44-.07v1.12ZM677.09,601.91c-.18.14-.42.23-.71.3-.29.06-.6.11-.93.15-.32.04-.65.08-.98.14-.33.05-.62.13-.88.25s-.47.27-.64.48c-.17.21-.25.49-.25.85,0,.24.05.44.14.6.1.16.22.3.38.4s.33.18.54.22c.21.04.42.07.65.07.48,0,.88-.06,1.22-.19.34-.13.62-.29.83-.49.21-.2.38-.41.48-.64.1-.23.15-.45.15-.65v-1.47Z"/>
        <path class="cls-4" d="M685.37,598.94h-4.96v-1.28h6.83v.99l-5.37,6.53h5.61v1.28h-7.41v-1.11l5.3-6.41Z"/>
        <path class="cls-4" d="M693.53,598.94h-4.96v-1.28h6.83v.99l-5.37,6.53h5.61v1.28h-7.41v-1.11l5.3-6.41Z"/>
        <path class="cls-4" d="M698.2,604.49c.13.22.31.4.54.53s.47.22.75.28c.28.06.56.09.86.09.23,0,.46-.02.71-.05.25-.04.48-.1.69-.19.21-.09.38-.22.52-.4.13-.17.2-.4.2-.67,0-.37-.14-.66-.42-.85-.28-.19-.64-.35-1.06-.47-.43-.12-.89-.23-1.39-.32-.5-.1-.96-.23-1.38-.41s-.78-.42-1.06-.74-.43-.76-.43-1.33c0-.44.1-.82.3-1.14.2-.32.45-.58.76-.77.31-.2.66-.35,1.05-.44.39-.1.78-.14,1.16-.14.5,0,.96.04,1.38.13s.79.23,1.11.44c.32.21.58.49.77.85.19.36.31.8.34,1.33h-1.44c-.02-.28-.1-.52-.22-.71-.12-.19-.28-.34-.47-.45-.19-.11-.41-.2-.64-.25s-.47-.08-.71-.08c-.21,0-.43.02-.65.05s-.42.09-.6.18-.33.2-.44.34-.17.33-.17.55c0,.25.09.46.26.62.17.16.4.3.67.41.27.11.58.2.92.27.34.07.68.15,1.02.23.36.08.72.18,1.06.29s.65.26.92.45c.27.19.48.42.64.71s.25.63.25,1.05c0,.53-.11.98-.33,1.33s-.51.63-.87.85-.76.37-1.21.45c-.45.08-.89.13-1.33.13-.49,0-.95-.05-1.39-.15-.44-.1-.83-.27-1.17-.5-.34-.23-.61-.54-.81-.92-.21-.38-.32-.84-.34-1.39h1.44c.01.32.09.59.22.81Z"/>
        <path class="cls-4" d="M711.51,606.45v-1.39h-.04c-.3.54-.7.94-1.17,1.2-.48.26-1.04.38-1.68.38-.58,0-1.06-.08-1.45-.23-.38-.15-.7-.37-.93-.65-.24-.28-.41-.62-.5-1.01-.1-.39-.14-.82-.14-1.3v-5.78h1.45v5.95c0,.54.16.98.47,1.29s.75.48,1.31.48c.44,0,.82-.07,1.15-.21.32-.13.59-.33.81-.58.21-.25.38-.54.48-.88.11-.33.16-.7.16-1.1v-4.96h1.45v8.79h-1.36Z"/>
        <path class="cls-4" d="M716.36,597.66v1.85h.03c.35-.71.78-1.24,1.29-1.58.51-.34,1.16-.5,1.94-.48v1.53c-.58,0-1.07.08-1.48.24-.41.16-.74.39-.98.7-.25.31-.43.68-.54,1.11-.11.44-.17.94-.17,1.5v3.91h-1.45v-8.79h1.36Z"/>
        <path class="cls-4" d="M722.24,594.32v12.14h-1.45v-12.14h1.45Z"/>
        <path class="cls-4" d="M732.27,606.42c-.25.15-.59.22-1.04.22-.37,0-.67-.11-.89-.31s-.33-.55-.33-1.03c-.4.48-.86.82-1.39,1.03s-1.1.31-1.71.31c-.4,0-.77-.04-1.13-.14-.36-.09-.67-.23-.93-.42-.26-.19-.47-.45-.62-.76-.15-.31-.23-.69-.23-1.13,0-.5.09-.91.26-1.22.17-.32.39-.58.67-.77.28-.2.6-.35.95-.45s.72-.19,1.1-.25c.4-.08.77-.14,1.13-.18.36-.04.67-.1.94-.17.27-.07.49-.18.65-.32s.24-.35.24-.62c0-.32-.06-.57-.18-.77-.12-.19-.27-.34-.46-.44-.19-.1-.4-.17-.63-.2s-.46-.05-.69-.05c-.61,0-1.12.12-1.53.35-.41.23-.63.67-.66,1.32h-1.45c.02-.54.14-1,.34-1.38.21-.37.48-.68.82-.91.34-.23.73-.4,1.16-.5.44-.1.9-.15,1.4-.15.4,0,.79.03,1.18.08s.75.17,1.06.35c.32.18.57.42.77.74s.29.73.29,1.24v4.51c0,.34.02.59.06.75.04.16.17.24.4.24.12,0,.27-.02.44-.07v1.12ZM729.92,601.91c-.18.14-.42.23-.71.3-.29.06-.6.11-.93.15-.32.04-.65.08-.98.14-.33.05-.62.13-.88.25s-.47.27-.64.48c-.17.21-.25.49-.25.85,0,.24.05.44.14.6.1.16.22.3.38.4s.33.18.54.22c.21.04.42.07.65.07.48,0,.88-.06,1.22-.19.34-.13.62-.29.83-.49.21-.2.38-.41.48-.64.1-.23.15-.45.15-.65v-1.47Z"/>
        <path class="cls-4" d="M735.11,597.66v1.19h.03c.24-.49.61-.84,1.12-1.06.51-.22,1.07-.33,1.68-.33.68,0,1.27.12,1.78.37.5.25.92.59,1.26,1.01s.59.92.76,1.47c.17.55.26,1.14.26,1.77s-.08,1.21-.25,1.77c-.17.55-.41,1.04-.75,1.45-.34.41-.75.74-1.26.98-.51.24-1.09.36-1.76.36-.22,0-.46-.02-.72-.07-.27-.04-.53-.12-.79-.22s-.51-.24-.74-.42-.43-.39-.59-.65h-.03v4.52h-1.45v-12.14h1.45ZM740.3,600.78c-.11-.39-.27-.74-.49-1.04-.22-.31-.5-.55-.85-.73-.35-.18-.75-.27-1.21-.27-.49,0-.9.1-1.24.29-.34.19-.62.44-.83.76-.21.31-.37.67-.47,1.06-.1.4-.14.8-.14,1.21,0,.43.05.85.15,1.25s.26.76.48,1.06c.22.31.51.55.86.74.35.19.78.28,1.27.28s.92-.1,1.25-.29.6-.45.81-.77c.2-.32.35-.68.44-1.09.09-.41.14-.83.14-1.26,0-.41-.05-.81-.16-1.2Z"/>
        <path class="cls-4" d="M745.22,594.32v12.14h-1.45v-12.14h1.45Z"/>
        <path class="cls-4" d="M755.25,606.42c-.25.15-.6.22-1.04.22-.38,0-.67-.11-.89-.31s-.33-.55-.33-1.03c-.4.48-.86.82-1.38,1.03s-1.1.31-1.71.31c-.4,0-.77-.04-1.13-.14-.36-.09-.67-.23-.93-.42-.26-.19-.47-.45-.62-.76-.15-.31-.23-.69-.23-1.13,0-.5.08-.91.25-1.22.17-.32.39-.58.67-.77s.6-.35.95-.45c.36-.1.72-.19,1.1-.25.4-.08.77-.14,1.13-.18.36-.04.67-.1.94-.17.27-.07.49-.18.64-.32.16-.14.24-.35.24-.62,0-.32-.06-.57-.18-.77-.12-.19-.27-.34-.46-.44-.19-.1-.4-.17-.63-.2s-.46-.05-.69-.05c-.61,0-1.12.12-1.53.35s-.63.67-.66,1.32h-1.45c.02-.54.13-1,.34-1.38.2-.37.47-.68.82-.91.34-.23.73-.4,1.16-.5.44-.1.9-.15,1.4-.15.4,0,.79.03,1.18.08s.74.17,1.06.35c.32.18.57.42.76.74.19.32.29.73.29,1.24v4.51c0,.34.02.59.06.75.04.16.17.24.4.24.12,0,.27-.02.44-.07v1.12ZM752.91,601.91c-.18.14-.42.23-.71.3-.29.06-.6.11-.93.15-.32.04-.65.08-.98.14s-.62.13-.88.25c-.26.11-.47.27-.64.48-.16.21-.25.49-.25.85,0,.24.05.44.14.6.1.16.22.3.37.4.15.1.33.18.54.22.2.04.42.07.64.07.48,0,.88-.06,1.22-.19.34-.13.62-.29.83-.49.21-.2.37-.41.47-.64.1-.23.15-.45.15-.65v-1.47Z"/>
        <path class="cls-4" d="M763.19,608.94c-.66.71-1.69,1.07-3.09,1.07-.41,0-.82-.04-1.25-.13-.43-.09-.81-.24-1.16-.44-.35-.2-.63-.47-.86-.8-.23-.33-.35-.73-.37-1.21h1.45c0,.26.09.48.25.66.15.18.34.33.56.44s.46.2.72.25c.26.05.51.08.75.08.48,0,.88-.08,1.21-.25.33-.16.6-.39.82-.68.21-.29.37-.64.47-1.04s.14-.86.14-1.34v-.58h-.03c-.25.54-.63.94-1.13,1.2-.51.25-1.04.38-1.61.38-.66,0-1.23-.12-1.72-.36-.49-.24-.89-.56-1.22-.96-.33-.4-.57-.87-.74-1.41s-.25-1.11-.25-1.71c0-.52.07-1.06.2-1.61.14-.55.36-1.05.68-1.5.32-.45.74-.82,1.26-1.11s1.16-.43,1.92-.43c.55,0,1.06.12,1.53.37.46.24.83.61,1.09,1.1h.02v-1.26h1.36v8.04c0,1.44-.33,2.52-.99,3.23ZM761.35,604.98c.33-.2.6-.46.81-.78.2-.32.35-.69.45-1.1.1-.41.14-.82.14-1.22,0-.38-.04-.76-.13-1.14-.09-.37-.24-.71-.43-1.01-.2-.3-.46-.54-.77-.72-.32-.18-.7-.27-1.16-.27s-.86.09-1.19.26c-.33.18-.6.41-.81.71s-.36.63-.46,1.02c-.1.38-.14.79-.14,1.21s.04.79.12,1.19c.08.4.21.76.41,1.08.19.32.45.58.76.78.32.2.71.3,1.19.3s.88-.1,1.21-.3Z"/>
        <path class="cls-4" d="M772.58,605.89c-.66.5-1.48.75-2.48.75-.7,0-1.31-.11-1.83-.34-.52-.23-.95-.54-1.3-.95-.35-.41-.62-.89-.79-1.46-.18-.57-.28-1.18-.3-1.85,0-.67.1-1.28.3-1.84.21-.56.49-1.04.86-1.45.37-.41.8-.72,1.31-.95.5-.23,1.06-.34,1.66-.34.78,0,1.43.16,1.95.48.52.32.93.73,1.24,1.23.31.5.53,1.04.64,1.63.12.59.17,1.15.14,1.68h-6.58c-.01.39.03.75.14,1.1.1.35.27.65.49.92.23.27.52.48.87.64s.77.24,1.24.24c.61,0,1.11-.14,1.51-.43.39-.28.65-.71.77-1.29h1.43c-.19.99-.62,1.73-1.28,2.23ZM772.23,600.25c-.13-.31-.31-.57-.53-.79-.22-.22-.48-.4-.78-.53-.3-.13-.63-.2-.99-.2s-.71.07-1.01.2c-.3.13-.56.31-.77.54-.21.23-.38.49-.51.79-.12.3-.2.62-.22.96h5.05c-.02-.34-.1-.66-.23-.97Z"/>
        <path class="cls-4" d="M777.69,604.57v1.89h-1.89v-1.89h1.89Z"/>
        <path class="cls-4" d="M785.46,599.19c-.36-.31-.85-.46-1.46-.46-.52,0-.96.1-1.31.29-.35.19-.63.45-.84.76-.21.32-.36.68-.45,1.1s-.14.84-.14,1.28c0,.41.05.8.14,1.19.1.38.25.73.45,1.03.21.3.47.54.8.72s.72.27,1.17.27c.71,0,1.27-.19,1.67-.56.4-.37.65-.9.74-1.58h1.48c-.16,1.09-.56,1.93-1.21,2.52-.65.59-1.54.88-2.66.88-.67,0-1.26-.11-1.78-.32-.52-.22-.95-.52-1.29-.92s-.61-.87-.78-1.42c-.18-.55-.26-1.15-.26-1.81s.09-1.27.26-1.84c.17-.57.43-1.07.77-1.5.35-.43.78-.76,1.3-1,.52-.24,1.13-.37,1.82-.37.5,0,.97.06,1.4.18s.82.3,1.16.55.61.56.82.94.35.83.41,1.35h-1.5c-.11-.56-.35-.99-.71-1.29Z"/>
        <path class="cls-4" d="M790.78,594.32v4.64h.03c.11-.27.27-.5.48-.69.2-.19.43-.34.69-.46.26-.12.52-.21.8-.26s.55-.08.81-.08c.58,0,1.06.08,1.45.24.38.16.7.38.93.66.24.28.41.62.5,1.01.1.39.14.82.14,1.3v5.78h-1.45v-5.95c0-.54-.16-.97-.47-1.29-.32-.32-.75-.48-1.31-.48-.44,0-.82.07-1.15.2-.32.14-.59.33-.81.58-.21.25-.38.54-.48.88s-.16.7-.16,1.1v4.96h-1.45v-12.14h1.45Z"/>
      </g>
      <g>
        <rect class="cls-1" x="209.54" y="864.19" width="597.11" height="462.05"/>
        <path class="cls-4" d="M452.55,864.19v62.01h75.95v-62.01h19.19v144.23h-19.19v-66.05h-75.95v66.05h-19.19v-144.23h19.19Z"/>
        <path class="cls-4" d="M650.31,1001.75c-7.81,5.93-17.64,8.89-29.49,8.89-8.35,0-15.59-1.35-21.71-4.04-6.13-2.69-11.28-6.46-15.45-11.31-4.18-4.85-7.31-10.64-9.39-17.37-2.09-6.73-3.27-14.07-3.53-22.02,0-7.94,1.21-15.22,3.64-21.82,2.42-6.6,5.82-12.32,10.2-17.17,4.37-4.85,9.56-8.62,15.55-11.31,5.99-2.69,12.56-4.04,19.7-4.04,9.29,0,17,1.92,23.13,5.76,6.13,3.84,11.04,8.72,14.75,14.64,3.7,5.93,6.26,12.39,7.68,19.39,1.41,7,1.99,13.67,1.72,20h-78.17c-.14,4.58.4,8.92,1.62,13.03,1.21,4.11,3.16,7.75,5.86,10.91,2.69,3.17,6.13,5.69,10.3,7.58,4.17,1.89,9.09,2.83,14.75,2.83,7.27,0,13.23-1.68,17.88-5.05,4.65-3.36,7.71-8.48,9.19-15.35h16.97c-2.29,11.72-7.34,20.54-15.15,26.46ZM646.17,934.69c-1.55-3.64-3.64-6.77-6.26-9.39s-5.73-4.71-9.29-6.26c-3.57-1.55-7.51-2.32-11.82-2.32s-8.45.78-12.02,2.32c-3.57,1.55-6.63,3.67-9.19,6.36-2.56,2.7-4.58,5.83-6.06,9.39-1.48,3.57-2.36,7.37-2.63,11.41h59.99c-.27-4.04-1.18-7.88-2.73-11.51Z"/>
        <path class="cls-4" d="M700.4,903.98v22.02h.4c4.17-8.48,9.29-14.75,15.35-18.79,6.06-4.04,13.74-5.92,23.03-5.66v18.18c-6.87,0-12.73.94-17.57,2.83-4.85,1.89-8.76,4.65-11.72,8.28-2.96,3.64-5.12,8.05-6.46,13.23-1.35,5.19-2.02,11.14-2.02,17.88v46.46h-17.17v-104.43h16.16Z"/>
        <path class="cls-4" d="M796.55,944.18v16.16h-58.38v-16.16h58.38Z"/>
        <path class="cls-4" d="M246.76,1044.64v14.67h.39c7.46-11.32,18.21-16.98,32.23-16.98,6.18,0,11.77,1.29,16.79,3.86,5.02,2.58,8.55,6.95,10.62,13.12,3.34-5.4,7.75-9.58,13.22-12.54,5.47-2.96,11.48-4.44,18.05-4.44,5.02,0,9.55.55,13.61,1.64,4.05,1.09,7.53,2.8,10.42,5.11,2.9,2.32,5.14,5.31,6.75,8.97,1.61,3.67,2.41,8.08,2.41,13.22v73.15h-16.41v-65.43c0-3.09-.26-5.98-.77-8.69-.52-2.7-1.48-5.05-2.89-7.04-1.42-1.99-3.38-3.57-5.89-4.73s-5.76-1.74-9.75-1.74c-8.11,0-14.48,2.32-19.11,6.95s-6.95,10.81-6.95,18.53v62.15h-16.4v-65.43c0-3.21-.29-6.18-.87-8.88s-1.58-5.05-2.99-7.04c-1.42-1.99-3.31-3.54-5.69-4.63-2.38-1.09-5.44-1.64-9.17-1.64-4.76,0-8.85.96-12.25,2.9-3.41,1.93-6.18,4.25-8.3,6.95s-3.67,5.5-4.63,8.4c-.96,2.9-1.45,5.31-1.45,7.24v62.15h-16.41v-99.78h15.44Z"/>
        <path class="cls-4" d="M484.34,1144.03c-2.83,1.67-6.75,2.51-11.77,2.51-4.25,0-7.62-1.19-10.13-3.57-2.51-2.38-3.76-6.27-3.76-11.68-4.51,5.4-9.75,9.3-15.73,11.68-5.98,2.38-12.45,3.57-19.4,3.57-4.51,0-8.78-.52-12.83-1.54-4.05-1.03-7.56-2.64-10.52-4.83-2.96-2.19-5.31-5.05-7.04-8.59-1.74-3.54-2.61-7.82-2.61-12.83,0-5.66.96-10.29,2.89-13.9,1.93-3.6,4.47-6.53,7.62-8.78,3.15-2.25,6.75-3.96,10.81-5.11s8.2-2.12,12.45-2.9c4.5-.9,8.78-1.57,12.83-2.03,4.05-.45,7.62-1.09,10.71-1.93,3.09-.83,5.53-2.06,7.33-3.67,1.8-1.61,2.7-3.96,2.7-7.04,0-3.6-.67-6.5-2.03-8.68-1.35-2.19-3.09-3.86-5.21-5.02-2.12-1.16-4.5-1.93-7.14-2.32-2.64-.39-5.24-.58-7.82-.58-6.95,0-12.74,1.32-17.37,3.96-4.63,2.64-7.14,7.62-7.53,14.96h-16.41c.26-6.18,1.54-11.39,3.86-15.63s5.4-7.69,9.26-10.33c3.86-2.64,8.27-4.54,13.22-5.69,4.95-1.16,10.26-1.74,15.92-1.74,4.5,0,8.97.32,13.41.96,4.44.64,8.46,1.96,12.06,3.95,3.6,1.99,6.5,4.78,8.69,8.38,2.19,3.59,3.28,8.28,3.28,14.06v51.23c0,3.85.22,6.68.68,8.47.45,1.8,1.96,2.7,4.54,2.7,1.42,0,3.09-.26,5.02-.77v12.74ZM457.71,1092.89c-2.06,1.54-4.76,2.66-8.11,3.36-3.35.71-6.85,1.28-10.52,1.73-3.67.45-7.37.96-11.1,1.54-3.73.58-7.08,1.5-10.04,2.78-2.96,1.28-5.37,3.1-7.24,5.47-1.87,2.37-2.8,5.6-2.8,9.7,0,2.69.55,4.96,1.64,6.82,1.09,1.86,2.51,3.36,4.25,4.51,1.74,1.15,3.76,1.98,6.08,2.5,2.32.51,4.76.77,7.33.77,5.4,0,10.04-.74,13.9-2.21,3.86-1.47,7.01-3.33,9.46-5.57,2.44-2.24,4.25-4.67,5.4-7.3,1.16-2.62,1.74-5.09,1.74-7.39v-16.71Z"/>
        <path class="cls-4" d="M515.02,1044.64v15.83h.39c6.82-12.09,17.63-18.14,32.42-18.14,6.56,0,12.03.9,16.41,2.7,4.37,1.8,7.91,4.31,10.62,7.53,2.7,3.22,4.6,7.04,5.69,11.48,1.09,4.44,1.64,9.36,1.64,14.76v65.62h-16.41v-67.55c0-6.18-1.8-11.06-5.4-14.67-3.6-3.6-8.56-5.4-14.86-5.4-5.02,0-9.36.77-13.03,2.32s-6.73,3.73-9.17,6.56c-2.45,2.83-4.28,6.15-5.5,9.94-1.22,3.8-1.83,7.95-1.83,12.45v56.36h-16.41v-99.78h15.44Z"/>
        <path class="cls-4" d="M666.53,1062.01c-4.12-3.47-9.65-5.21-16.6-5.21-5.92,0-10.87,1.09-14.86,3.28-3.99,2.19-7.17,5.08-9.55,8.68-2.38,3.6-4.09,7.75-5.11,12.45-1.03,4.7-1.54,9.55-1.54,14.57,0,4.63.55,9.14,1.64,13.51,1.09,4.38,2.8,8.27,5.11,11.68,2.32,3.41,5.34,6.15,9.07,8.2,3.73,2.06,8.17,3.09,13.32,3.09,8.11,0,14.44-2.12,19.01-6.37,4.57-4.25,7.36-10.23,8.4-17.95h16.79c-1.8,12.35-6.4,21.88-13.8,28.56-7.4,6.69-17.47,10.04-30.2,10.04-7.59,0-14.32-1.22-20.17-3.67-5.86-2.44-10.74-5.92-14.67-10.42-3.93-4.5-6.88-9.87-8.88-16.12-2-6.24-2.99-13.09-2.99-20.55s.96-14.44,2.89-20.94c1.93-6.5,4.86-12.16,8.78-16.98,3.92-4.83,8.85-8.62,14.76-11.39,5.92-2.77,12.8-4.15,20.65-4.15,5.66,0,10.97.67,15.92,2.03,4.95,1.35,9.33,3.44,13.12,6.27,3.79,2.83,6.91,6.4,9.36,10.71,2.44,4.31,3.99,9.43,4.63,15.34h-16.98c-1.29-6.3-3.99-11.19-8.11-14.67Z"/>
        <path class="cls-4" d="M785.04,1137.75c-7.81,5.93-17.64,8.89-29.49,8.89-8.35,0-15.59-1.35-21.71-4.04-6.13-2.69-11.28-6.46-15.45-11.31-4.18-4.85-7.31-10.64-9.39-17.37-2.09-6.73-3.27-14.07-3.53-22.02,0-7.94,1.21-15.22,3.64-21.82,2.42-6.6,5.82-12.32,10.2-17.17,4.37-4.85,9.56-8.62,15.55-11.31,5.99-2.69,12.56-4.04,19.7-4.04,9.29,0,17,1.92,23.13,5.76,6.13,3.84,11.04,8.72,14.75,14.64,3.7,5.93,6.26,12.39,7.68,19.39,1.41,7,1.99,13.67,1.72,20h-78.17c-.14,4.58.4,8.92,1.62,13.03,1.21,4.11,3.16,7.75,5.86,10.91,2.69,3.17,6.13,5.69,10.3,7.58,4.17,1.89,9.09,2.83,14.75,2.83,7.27,0,13.23-1.68,17.88-5.05,4.65-3.36,7.71-8.48,9.19-15.35h16.97c-2.29,11.72-7.34,20.54-15.15,26.46ZM780.9,1070.69c-1.55-3.64-3.64-6.77-6.26-9.39s-5.73-4.71-9.29-6.26c-3.57-1.55-7.51-2.32-11.82-2.32s-8.45.78-12.02,2.32c-3.57,1.55-6.63,3.67-9.19,6.36-2.56,2.7-4.58,5.83-6.06,9.39-1.48,3.57-2.36,7.37-2.63,11.41h59.99c-.27-4.04-1.18-7.88-2.73-11.51Z"/>
      </g>
      <g>
        <rect class="cls-1" x="62.98" y="1139.18" width="229.73" height="46.66"/>
        <path class="cls-4" d="M66.53,1144.12c-.29.11-.58.17-.88.17-.37,0-.71-.07-1-.21s-.54-.32-.75-.56c-.21-.23-.36-.5-.47-.8s-.16-.62-.16-.95c0-.36.05-.71.15-1.04.1-.33.25-.62.45-.86.2-.25.45-.44.74-.59.3-.15.64-.22,1.04-.22.27,0,.53.03.77.09.24.06.46.16.64.3.19.13.35.31.48.51.13.21.22.46.26.75h-.67c-.03-.19-.09-.36-.18-.49-.09-.14-.2-.25-.33-.34-.13-.09-.28-.16-.44-.2-.17-.04-.34-.07-.53-.07-.3,0-.56.06-.78.18s-.39.28-.53.48-.24.42-.3.68c-.07.25-.1.51-.1.78s.04.51.11.75c.07.24.18.45.33.64.14.18.32.33.54.44.21.11.46.16.74.16.26,0,.49-.04.69-.13.2-.08.37-.2.51-.35.14-.15.24-.32.31-.52.07-.2.1-.41.09-.64h-1.6v-.56h2.19v2.63h-.42l-.17-.62c-.2.26-.44.45-.73.56Z"/>
        <path class="cls-4" d="M69.27,1140.56v.76h.01c.14-.29.32-.51.53-.65.21-.14.48-.21.8-.2v.63c-.24,0-.44.03-.61.1s-.3.16-.41.29c-.1.13-.18.28-.22.46s-.07.39-.07.62v1.61h-.6v-3.62h.56Z"/>
        <path class="cls-4" d="M74.27,1144.17c-.1.06-.25.09-.43.09-.15,0-.28-.04-.37-.13-.09-.09-.14-.23-.14-.42-.16.2-.35.34-.57.42-.22.09-.45.13-.7.13-.16,0-.32-.02-.47-.06-.15-.04-.27-.1-.38-.18-.11-.08-.19-.18-.25-.31-.06-.13-.09-.28-.09-.46,0-.21.04-.37.11-.5.07-.13.16-.24.28-.32.11-.08.25-.14.39-.19.15-.04.3-.08.45-.1.16-.03.32-.06.47-.07.15-.02.28-.04.39-.07s.2-.07.27-.13.1-.14.1-.26c0-.13-.02-.24-.07-.31-.05-.08-.11-.14-.19-.18s-.16-.07-.26-.08c-.1-.01-.19-.02-.28-.02-.25,0-.46.05-.63.14s-.26.28-.27.54h-.6c0-.22.06-.41.14-.57.08-.15.2-.28.34-.38.14-.1.3-.16.48-.21s.37-.06.58-.06c.16,0,.33.01.49.04.16.02.31.07.44.14.13.07.24.17.32.3.08.13.12.3.12.51v1.86c0,.14,0,.24.02.31s.07.1.16.1c.05,0,.11,0,.18-.03v.46ZM73.31,1142.31c-.08.06-.17.1-.29.12-.12.03-.25.05-.38.06-.13.02-.27.04-.4.06-.14.02-.26.05-.36.1-.11.05-.2.11-.26.2s-.1.2-.1.35c0,.1.02.18.06.25s.09.12.15.16c.06.04.14.07.22.09s.17.03.27.03c.2,0,.36-.03.5-.08.14-.05.25-.12.34-.2.09-.08.15-.17.2-.26.04-.09.06-.18.06-.27v-.61Z"/>
        <path class="cls-4" d="M75.44,1140.56v.49h.01c.1-.2.25-.35.46-.44s.44-.14.69-.14c.28,0,.52.05.73.15.21.1.38.24.52.42.14.18.24.38.31.61.07.23.11.47.11.73s-.03.5-.1.73c-.07.23-.17.43-.31.6-.14.17-.31.3-.52.4-.21.1-.45.15-.72.15-.09,0-.19,0-.3-.03-.11-.02-.22-.05-.33-.09s-.21-.1-.3-.17c-.1-.07-.18-.16-.24-.27h-.01v1.86h-.6v-5h.6ZM77.58,1141.84c-.04-.16-.11-.3-.2-.43-.09-.13-.21-.23-.35-.3-.14-.07-.31-.11-.5-.11-.2,0-.37.04-.51.12-.14.08-.25.18-.34.31-.09.13-.15.27-.19.44-.04.16-.06.33-.06.5,0,.18.02.35.06.51.04.17.11.31.2.44s.21.23.35.3.32.12.52.12.38-.04.51-.12c.14-.08.25-.18.33-.32s.14-.28.18-.45.06-.34.06-.52-.02-.33-.07-.49Z"/>
        <path class="cls-4" d="M79.57,1139.18v1.91h.01c.05-.11.11-.21.2-.28.08-.08.18-.14.28-.19.11-.05.21-.08.33-.11s.23-.04.33-.04c.24,0,.44.03.59.1.16.07.29.16.38.27.1.12.17.26.21.42.04.16.06.34.06.54v2.38h-.6v-2.45c0-.22-.07-.4-.2-.53-.13-.13-.31-.2-.54-.2-.18,0-.34.03-.47.08-.13.06-.24.13-.33.24-.09.1-.16.22-.2.36s-.07.29-.07.45v2.04h-.59v-5h.59Z"/>
        <path class="cls-4" d="M82.9,1139.91v-.73h.59v.73h-.59ZM83.5,1140.56v3.62h-.59v-3.62h.59Z"/>
        <path class="cls-4" d="M84.88,1143.37c.06.09.13.16.22.22.09.05.19.09.31.12s.23.03.35.03c.09,0,.19,0,.29-.02s.2-.04.28-.08c.09-.04.16-.09.21-.16.06-.07.08-.17.08-.28,0-.15-.06-.27-.17-.35-.12-.08-.26-.14-.44-.19-.18-.05-.37-.09-.57-.13-.21-.04-.4-.1-.57-.17s-.32-.17-.44-.3c-.12-.13-.17-.31-.17-.55,0-.18.04-.34.12-.47.08-.13.19-.24.32-.32.13-.08.27-.14.43-.18.16-.04.32-.06.48-.06.21,0,.39.02.57.05s.33.1.46.18c.13.09.24.2.32.35.08.15.13.33.14.55h-.59c0-.12-.04-.21-.09-.29-.05-.08-.12-.14-.2-.19s-.17-.08-.26-.1c-.1-.02-.19-.03-.29-.03-.09,0-.18,0-.27.02-.09.01-.17.04-.25.07-.07.04-.13.08-.18.14s-.07.13-.07.23c0,.1.04.19.11.25.07.07.17.12.28.17.11.04.24.08.38.11.14.03.28.06.42.09.15.03.29.07.44.12.14.05.27.11.38.19.11.08.2.17.27.29.07.12.1.26.1.43,0,.22-.05.4-.14.55s-.21.26-.36.35c-.15.09-.31.15-.5.19-.18.04-.37.05-.55.05-.2,0-.39-.02-.57-.06-.18-.04-.34-.11-.48-.21-.14-.1-.25-.22-.34-.38s-.13-.35-.14-.57h.59c0,.13.04.24.09.33Z"/>
        <path class="cls-4" d="M88.48,1140.56v.53h.01c.27-.41.66-.62,1.17-.62.22,0,.43.05.61.14.18.09.31.25.38.48.12-.2.28-.35.48-.46.2-.11.42-.16.66-.16.18,0,.35.02.49.06.15.04.27.1.38.19.11.08.19.19.25.33.06.13.09.29.09.48v2.65h-.6v-2.37c0-.11,0-.22-.03-.32-.02-.1-.05-.18-.11-.25s-.12-.13-.21-.17c-.09-.04-.21-.06-.35-.06-.29,0-.52.08-.69.25s-.25.39-.25.67v2.25h-.59v-2.37c0-.12-.01-.22-.03-.32-.02-.1-.06-.18-.11-.25-.05-.07-.12-.13-.21-.17-.09-.04-.2-.06-.33-.06-.17,0-.32.04-.44.1-.12.07-.22.15-.3.25-.08.1-.13.2-.17.3-.04.11-.05.19-.05.26v2.25h-.59v-3.62h.56Z"/>
        <path class="cls-4" d="M96.45,1143.95c-.27.21-.61.31-1.02.31-.29,0-.54-.05-.75-.14-.21-.09-.39-.22-.54-.39s-.25-.37-.33-.6c-.07-.23-.11-.49-.12-.76,0-.28.04-.53.13-.76s.2-.43.35-.59.33-.3.54-.39c.21-.09.44-.14.68-.14.32,0,.59.07.8.2.21.13.38.3.51.51.13.21.22.43.27.67.05.24.07.47.06.69h-2.71c0,.16.01.31.06.45s.11.27.2.38c.09.11.21.2.36.26s.32.1.51.1c.25,0,.46-.06.62-.17.16-.12.27-.29.32-.53h.59c-.08.41-.25.71-.53.92ZM96.31,1141.63c-.05-.13-.13-.23-.22-.33-.09-.09-.2-.16-.32-.22-.12-.05-.26-.08-.41-.08s-.29.03-.42.08c-.12.05-.23.13-.32.22-.09.09-.16.2-.21.33-.05.12-.08.26-.09.4h2.08c0-.14-.04-.27-.09-.4Z"/>
        <path class="cls-4" d="M98.89,1141.34v-.78h.78v.78h-.78ZM99.67,1143.4v.78h-.78v-.78h.78Z"/>
        <path class="cls-4" d="M102.22,1139.74v-.56h4v.56h-1.67v4.44h-.67v-4.44h-1.67Z"/>
        <path class="cls-4" d="M107.26,1139.18v1.91h.01c.05-.11.11-.21.2-.28.08-.08.18-.14.28-.19.11-.05.21-.08.33-.11s.23-.04.33-.04c.24,0,.44.03.59.1.16.07.29.16.38.27.1.12.17.26.21.42.04.16.06.34.06.54v2.38h-.6v-2.45c0-.22-.07-.4-.2-.53-.13-.13-.31-.2-.54-.2-.18,0-.34.03-.47.08-.13.06-.24.13-.33.24-.09.1-.16.22-.2.36s-.07.29-.07.45v2.04h-.59v-5h.59Z"/>
        <path class="cls-4" d="M113.12,1143.95c-.27.21-.61.31-1.02.31-.29,0-.54-.05-.75-.14-.21-.09-.39-.22-.54-.39s-.25-.37-.33-.6c-.07-.23-.11-.49-.12-.76,0-.28.04-.53.13-.76s.2-.43.35-.59.33-.3.54-.39c.21-.09.44-.14.68-.14.32,0,.59.07.8.2.21.13.38.3.51.51.13.21.22.43.27.67.05.24.07.47.06.69h-2.71c0,.16.01.31.06.45s.11.27.2.38c.09.11.21.2.36.26s.32.1.51.1c.25,0,.46-.06.62-.17.16-.12.27-.29.32-.53h.59c-.08.41-.25.71-.53.92ZM112.98,1141.63c-.05-.13-.13-.23-.22-.33-.09-.09-.2-.16-.32-.22-.12-.05-.26-.08-.41-.08s-.29.03-.42.08c-.12.05-.23.13-.32.22-.09.09-.16.2-.21.33-.05.12-.08.26-.09.4h2.08c0-.14-.04-.27-.09-.4Z"/>
        <path class="cls-4" d="M116.75,1144.18v-.57h-.01c-.13.22-.29.39-.48.49-.2.1-.43.16-.69.16-.24,0-.44-.03-.6-.09-.16-.06-.29-.15-.38-.27-.1-.12-.17-.26-.21-.42-.04-.16-.06-.34-.06-.54v-2.38h.59v2.45c0,.22.07.4.2.53.13.13.31.2.54.2.18,0,.34-.03.47-.08.13-.06.24-.13.33-.24s.16-.22.2-.36c.04-.14.07-.29.07-.45v-2.04h.6v3.62h-.56Z"/>
        <path class="cls-4" d="M118.75,1140.56v.76h.01c.14-.29.32-.51.53-.65.21-.14.48-.21.8-.2v.63c-.24,0-.44.03-.61.1s-.3.16-.41.29c-.1.13-.18.28-.22.46s-.07.39-.07.62v1.61h-.6v-3.62h.56Z"/>
        <path class="cls-4" d="M120.58,1139.91v-.73h.59v.73h-.59ZM121.17,1140.56v3.62h-.59v-3.62h.59Z"/>
        <path class="cls-4" d="M122.72,1139.18v5h-.59v-5h.59Z"/>
        <path class="cls-4" d="M124.28,1139.18v5h-.59v-5h.59Z"/>
        <path class="cls-4" d="M128.41,1144.17c-.1.06-.25.09-.43.09-.15,0-.28-.04-.37-.13-.09-.09-.14-.23-.14-.42-.16.2-.35.34-.57.42-.22.09-.45.13-.7.13-.16,0-.32-.02-.47-.06-.15-.04-.27-.1-.38-.18-.11-.08-.19-.18-.25-.31-.06-.13-.09-.28-.09-.46,0-.21.04-.37.11-.5.07-.13.16-.24.28-.32.11-.08.25-.14.39-.19.15-.04.3-.08.45-.1.16-.03.32-.06.47-.07.15-.02.28-.04.39-.07s.2-.07.27-.13.1-.14.1-.26c0-.13-.02-.24-.07-.31-.05-.08-.11-.14-.19-.18s-.16-.07-.26-.08c-.1-.01-.19-.02-.28-.02-.25,0-.46.05-.63.14s-.26.28-.27.54h-.6c0-.22.06-.41.14-.57.08-.15.2-.28.34-.38.14-.1.3-.16.48-.21s.37-.06.58-.06c.16,0,.33.01.49.04.16.02.31.07.44.14.13.07.24.17.32.3.08.13.12.3.12.51v1.86c0,.14,0,.24.02.31s.07.1.16.1c.05,0,.11,0,.18-.03v.46ZM127.44,1142.31c-.08.06-.17.1-.29.12-.12.03-.25.05-.38.06-.13.02-.27.04-.4.06-.14.02-.26.05-.36.1-.11.05-.2.11-.26.2s-.1.2-.1.35c0,.1.02.18.06.25s.09.12.15.16c.06.04.14.07.22.09s.17.03.27.03c.2,0,.36-.03.5-.08.14-.05.25-.12.34-.2.09-.08.15-.17.2-.26.04-.09.06-.18.06-.27v-.61Z"/>
        <path class="cls-4" d="M130.51,1140.56v.53h-.72v2.25c0,.07,0,.13.02.17.01.04.03.07.07.1.03.02.08.04.14.05.06,0,.13,0,.23,0h.27v.53h-.46c-.15,0-.29-.01-.4-.03-.11-.02-.2-.06-.27-.12-.07-.06-.12-.13-.15-.24-.03-.1-.05-.24-.05-.41v-2.3h-.62v-.53h.62v-1.08h.6v1.08h.72Z"/>
        <path class="cls-4" d="M134.13,1139.18l1.58,4.2,1.58-4.2h.91v5h-.63v-4.16h-.01l-1.56,4.16h-.57l-1.56-4.16h-.01v4.16h-.63v-5h.91Z"/>
        <path class="cls-4" d="M142.42,1144.17c-.1.06-.25.09-.43.09-.15,0-.28-.04-.37-.13-.09-.09-.14-.23-.14-.42-.16.2-.35.34-.57.42-.22.09-.45.13-.7.13-.16,0-.32-.02-.47-.06-.15-.04-.27-.1-.38-.18-.11-.08-.19-.18-.25-.31-.06-.13-.09-.28-.09-.46,0-.21.04-.37.11-.5.07-.13.16-.24.28-.32.11-.08.25-.14.39-.19.15-.04.3-.08.45-.1.16-.03.32-.06.47-.07.15-.02.28-.04.39-.07s.2-.07.27-.13.1-.14.1-.26c0-.13-.02-.24-.07-.31-.05-.08-.11-.14-.19-.18s-.16-.07-.26-.08c-.1-.01-.19-.02-.28-.02-.25,0-.46.05-.63.14s-.26.28-.27.54h-.6c0-.22.06-.41.14-.57.08-.15.2-.28.34-.38.14-.1.3-.16.48-.21s.37-.06.58-.06c.16,0,.33.01.49.04.16.02.31.07.44.14.13.07.24.17.32.3.08.13.12.3.12.51v1.86c0,.14,0,.24.02.31s.07.1.16.1c.05,0,.11,0,.18-.03v.46ZM141.45,1142.31c-.08.06-.17.1-.29.12-.12.03-.25.05-.38.06-.13.02-.27.04-.4.06-.14.02-.26.05-.36.1-.11.05-.2.11-.26.2s-.1.2-.1.35c0,.1.02.18.06.25s.09.12.15.16c.06.04.14.07.22.09s.17.03.27.03c.2,0,.36-.03.5-.08.14-.05.25-.12.34-.2.09-.08.15-.17.2-.26.04-.09.06-.18.06-.27v-.61Z"/>
        <path class="cls-4" d="M143.6,1139.18v5h-.59v-5h.59Z"/>
        <path class="cls-4" d="M144.56,1139.91v-.73h.59v.73h-.59ZM145.15,1140.56v3.62h-.59v-3.62h.59Z"/>
        <path class="cls-4" d="M146.71,1139.18v2.96l1.65-1.58h.8l-1.44,1.32,1.54,2.3h-.76l-1.24-1.89-.56.52v1.37h-.59v-5h.59Z"/>
      </g>
      <rect class="cls-3" x="63.34" y="156.06" width="229.37" height="58.97"/>
      <g>
        <rect class="cls-1" x="49.25" y="65.11" width="577.12" height="479.69"/>
        <path class="cls-4" d="M149.11,192.57c-1.47,4.9-3.92,9.28-7.35,13.12-3.43,3.85-7.98,6.93-13.65,9.24-5.67,2.31-12.71,3.47-21.11,3.47-14,0-24.78-3.68-32.34-11.03s-11.34-18.17-11.34-32.45v-9.24h19.95v6.3c0,4.34.35,8.33,1.05,11.97.7,3.64,1.92,6.79,3.67,9.45,1.75,2.66,4.2,4.72,7.35,6.2,3.15,1.47,7.17,2.2,12.08,2.2,9.1,0,15.36-2.45,18.79-7.35,3.43-4.9,5.15-11.48,5.15-19.74v-109.62h19.95v112.56c0,5.04-.74,10.01-2.21,14.91Z"/>
        <path class="cls-4" d="M277.31,214.62c-3.08,1.82-7.35,2.73-12.81,2.73-4.62,0-8.29-1.3-11.02-3.88-2.73-2.59-4.09-6.83-4.09-12.71-4.9,5.88-10.61,10.12-17.12,12.71s-13.54,3.88-21.11,3.88c-4.9,0-9.55-.56-13.96-1.68s-8.23-2.87-11.45-5.25c-3.22-2.38-5.77-5.49-7.67-9.34-1.89-3.85-2.83-8.5-2.83-13.96,0-6.16,1.05-11.2,3.15-15.12,2.1-3.92,4.86-7.1,8.29-9.56,3.43-2.45,7.35-4.3,11.76-5.56,4.41-1.26,8.93-2.31,13.54-3.15,4.9-.98,9.56-1.71,13.97-2.21,4.41-.49,8.29-1.19,11.65-2.1,3.36-.91,6.02-2.24,7.98-3.99,1.96-1.75,2.94-4.3,2.94-7.67,0-3.92-.73-7.07-2.21-9.45-1.47-2.38-3.36-4.2-5.67-5.46-2.31-1.26-4.9-2.1-7.77-2.52-2.87-.42-5.71-.63-8.5-.63-7.56,0-13.86,1.44-18.9,4.3-5.04,2.87-7.77,8.29-8.19,16.28h-17.85c.28-6.72,1.68-12.39,4.2-17.01,2.52-4.62,5.88-8.36,10.08-11.24,4.2-2.87,8.99-4.94,14.38-6.2,5.39-1.26,11.16-1.89,17.33-1.89,4.9,0,9.76.35,14.59,1.05s9.2,2.13,13.12,4.29c3.92,2.17,7.07,5.2,9.45,9.12,2.38,3.91,3.57,9.01,3.57,15.29v55.74c0,4.19.24,7.26.73,9.22.49,1.96,2.13,2.93,4.94,2.93,1.54,0,3.36-.28,5.46-.84v13.86ZM248.33,158.97c-2.24,1.67-5.18,2.89-8.82,3.66-3.64.77-7.46,1.39-11.45,1.88-3.99.49-8.02,1.05-12.08,1.67-4.06.63-7.7,1.64-10.92,3.03-3.22,1.39-5.85,3.38-7.88,5.96-2.03,2.58-3.04,6.1-3.04,10.55,0,2.93.59,5.4,1.79,7.42,1.19,2.02,2.73,3.66,4.62,4.91,1.89,1.25,4.09,2.16,6.62,2.72,2.52.56,5.18.83,7.98.83,5.88,0,10.92-.8,15.12-2.4s7.63-3.62,10.29-6.06c2.66-2.44,4.62-5.09,5.88-7.94s1.89-5.54,1.89-8.05v-18.18Z"/>
        <path class="cls-4" d="M354.8,122.22h-61.32v-15.75h84.42v12.18l-66.36,80.64h69.3v15.75h-91.56v-13.65l65.52-79.17Z"/>
        <path class="cls-4" d="M455.6,122.22h-61.32v-15.75h84.42v12.18l-66.36,80.64h69.3v15.75h-91.56v-13.65l65.52-79.17Z"/>
        <path class="cls-4" d="M76.34,328.79c1.68,2.73,3.88,4.9,6.62,6.51,2.73,1.61,5.81,2.77,9.24,3.46,3.43.7,6.96,1.05,10.6,1.05,2.8,0,5.74-.21,8.82-.63,3.08-.42,5.91-1.19,8.5-2.31,2.59-1.12,4.72-2.76,6.41-4.94,1.68-2.17,2.52-4.93,2.52-8.29,0-4.62-1.75-8.12-5.25-10.5-3.5-2.38-7.88-4.3-13.12-5.77s-10.96-2.8-17.12-3.99c-6.16-1.19-11.86-2.87-17.11-5.04-5.25-2.17-9.63-5.21-13.12-9.13-3.5-3.92-5.25-9.38-5.25-16.38,0-5.46,1.22-10.15,3.67-14.07,2.45-3.92,5.6-7.1,9.45-9.55,3.85-2.45,8.19-4.27,13.02-5.46,4.83-1.19,9.62-1.79,14.38-1.79,6.16,0,11.83.52,17.01,1.58,5.18,1.05,9.76,2.87,13.75,5.46,3.99,2.59,7.17,6.09,9.55,10.5,2.38,4.41,3.78,9.91,4.2,16.48h-17.85c-.28-3.5-1.19-6.4-2.73-8.71-1.54-2.31-3.5-4.16-5.88-5.56-2.38-1.4-5.01-2.42-7.88-3.04-2.87-.63-5.78-.95-8.71-.95-2.66,0-5.36.21-8.08.63-2.73.42-5.22,1.16-7.46,2.21-2.24,1.05-4.06,2.45-5.46,4.2-1.4,1.75-2.1,4.03-2.1,6.82,0,3.08,1.08,5.64,3.25,7.67,2.17,2.03,4.94,3.71,8.29,5.04,3.36,1.33,7.14,2.45,11.34,3.36,4.2.91,8.4,1.86,12.6,2.83,4.48.98,8.85,2.17,13.12,3.57,4.27,1.4,8.05,3.25,11.34,5.56,3.29,2.31,5.95,5.22,7.98,8.71,2.03,3.5,3.04,7.84,3.04,13.02,0,6.58-1.37,12.04-4.09,16.38-2.73,4.34-6.3,7.84-10.71,10.5-4.41,2.66-9.38,4.51-14.91,5.57-5.53,1.05-11.03,1.57-16.49,1.57-6.02,0-11.76-.63-17.22-1.89s-10.29-3.32-14.49-6.2c-4.2-2.87-7.56-6.65-10.08-11.34-2.52-4.69-3.92-10.39-4.2-17.12h17.85c.14,3.92,1.05,7.25,2.73,9.98Z"/>
        <path class="cls-4" d="M240.77,353.04v-17.22h-.42c-3.78,6.72-8.61,11.65-14.49,14.8s-12.81,4.72-20.79,4.72c-7.14,0-13.09-.94-17.85-2.83-4.76-1.89-8.61-4.58-11.55-8.08-2.94-3.5-5.01-7.67-6.2-12.5-1.19-4.83-1.78-10.18-1.78-16.06v-71.4h17.85v73.5c0,6.72,1.96,12.04,5.88,15.96,3.92,3.92,9.31,5.88,16.17,5.88,5.46,0,10.19-.84,14.17-2.52,3.99-1.68,7.31-4.06,9.98-7.14,2.66-3.08,4.65-6.68,5.98-10.82,1.33-4.13,2-8.64,2-13.54v-61.32h17.85v108.57h-16.8Z"/>
        <path class="cls-4" d="M300.62,244.47v22.89h.42c4.34-8.82,9.66-15.33,15.96-19.53s14.28-6.16,23.94-5.88v18.9c-7.14,0-13.23.98-18.27,2.94-5.04,1.96-9.1,4.83-12.18,8.61-3.08,3.78-5.32,8.37-6.72,13.75-1.4,5.39-2.1,11.59-2.1,18.58v48.3h-17.85v-108.57h16.8Z"/>
        <path class="cls-4" d="M431.66,203.1v149.94h-17.85v-149.94h17.85Z"/>
        <path class="cls-4" d="M555.56,352.62c-3.08,1.82-7.35,2.73-12.81,2.73-4.62,0-8.29-1.3-11.02-3.88-2.73-2.59-4.1-6.83-4.1-12.71-4.9,5.88-10.61,10.12-17.12,12.71s-13.54,3.88-21.11,3.88c-4.9,0-9.55-.56-13.96-1.68s-8.22-2.87-11.45-5.25c-3.22-2.38-5.77-5.49-7.66-9.34-1.89-3.85-2.84-8.5-2.84-13.96,0-6.16,1.05-11.2,3.15-15.12,2.1-3.92,4.86-7.1,8.29-9.56,3.43-2.45,7.35-4.3,11.76-5.56,4.41-1.26,8.93-2.31,13.54-3.15,4.9-.98,9.56-1.71,13.97-2.21,4.41-.49,8.29-1.19,11.65-2.1,3.36-.91,6.02-2.24,7.98-3.99,1.96-1.75,2.94-4.3,2.94-7.67,0-3.92-.73-7.07-2.21-9.45-1.47-2.38-3.36-4.2-5.67-5.46-2.31-1.26-4.9-2.1-7.77-2.52-2.87-.42-5.71-.63-8.51-.63-7.56,0-13.86,1.44-18.9,4.3-5.04,2.87-7.77,8.29-8.19,16.28h-17.85c.28-6.72,1.68-12.39,4.2-17.01,2.52-4.62,5.88-8.36,10.08-11.24,4.2-2.87,8.99-4.94,14.38-6.2,5.39-1.26,11.16-1.89,17.33-1.89,4.9,0,9.76.35,14.59,1.05s9.21,2.13,13.12,4.29c3.92,2.17,7.07,5.2,9.45,9.12,2.38,3.91,3.57,9.01,3.57,15.29v55.74c0,4.19.24,7.26.73,9.22.49,1.96,2.13,2.93,4.94,2.93,1.54,0,3.36-.28,5.46-.84v13.86ZM526.58,296.97c-2.24,1.67-5.18,2.89-8.82,3.66-3.64.77-7.46,1.39-11.45,1.88-3.99.49-8.02,1.05-12.08,1.67-4.06.63-7.7,1.64-10.92,3.03-3.22,1.39-5.85,3.38-7.88,5.96-2.03,2.58-3.04,6.1-3.04,10.55,0,2.93.59,5.4,1.79,7.42,1.19,2.02,2.73,3.66,4.62,4.91,1.89,1.25,4.09,2.16,6.62,2.72,2.52.56,5.18.83,7.98.83,5.88,0,10.92-.8,15.12-2.4,4.2-1.6,7.63-3.62,10.29-6.06,2.66-2.44,4.62-5.09,5.88-7.94s1.89-5.54,1.89-8.05v-18.18Z"/>
        <path class="cls-4" d="M81.17,382.47v14.7h.42c2.94-6.02,7.56-10.39,13.86-13.12,6.3-2.73,13.23-4.09,20.79-4.09,8.4,0,15.71,1.54,21.94,4.62,6.23,3.08,11.41,7.25,15.54,12.5,4.13,5.25,7.25,11.31,9.35,18.17,2.1,6.86,3.15,14.14,3.15,21.84s-1.02,14.98-3.04,21.84c-2.03,6.86-5.11,12.85-9.24,17.96-4.13,5.11-9.31,9.13-15.54,12.08-6.23,2.94-13.48,4.41-21.73,4.41-2.66,0-5.64-.28-8.92-.84-3.29-.56-6.55-1.47-9.77-2.73-3.22-1.26-6.27-2.97-9.13-5.15-2.87-2.17-5.29-4.86-7.25-8.08h-.42v55.86h-17.85v-149.94h17.85ZM145.33,421.01c-1.33-4.83-3.36-9.13-6.09-12.92-2.73-3.78-6.23-6.79-10.5-9.03-4.27-2.24-9.28-3.36-15.02-3.36-6.02,0-11.13,1.19-15.33,3.57-4.2,2.38-7.63,5.5-10.29,9.34-2.66,3.85-4.59,8.23-5.77,13.12-1.19,4.9-1.79,9.87-1.79,14.91,0,5.32.63,10.47,1.89,15.43,1.26,4.97,3.25,9.34,5.99,13.12,2.73,3.78,6.26,6.83,10.6,9.13,4.34,2.31,9.59,3.46,15.75,3.46s11.3-1.19,15.44-3.57c4.13-2.38,7.46-5.53,9.97-9.45,2.52-3.92,4.34-8.4,5.46-13.44,1.12-5.04,1.68-10.22,1.68-15.54,0-5.04-.67-9.97-2-14.8Z"/>
        <path class="cls-4" d="M206.12,341.1v149.94h-17.85v-149.94h17.85Z"/>
        <path class="cls-4" d="M330.02,490.62c-3.08,1.82-7.35,2.73-12.81,2.73-4.62,0-8.29-1.3-11.02-3.88-2.73-2.59-4.09-6.83-4.09-12.71-4.9,5.88-10.61,10.12-17.12,12.71s-13.54,3.88-21.11,3.88c-4.9,0-9.55-.56-13.96-1.68s-8.23-2.87-11.45-5.25c-3.22-2.38-5.77-5.49-7.67-9.34-1.89-3.85-2.83-8.5-2.83-13.96,0-6.16,1.05-11.2,3.15-15.12,2.1-3.92,4.86-7.1,8.29-9.56,3.43-2.45,7.35-4.3,11.76-5.56,4.41-1.26,8.93-2.31,13.54-3.15,4.9-.98,9.56-1.71,13.97-2.21,4.41-.49,8.29-1.19,11.65-2.1,3.36-.91,6.02-2.24,7.98-3.99,1.96-1.75,2.94-4.3,2.94-7.67,0-3.92-.73-7.07-2.21-9.45-1.47-2.38-3.36-4.2-5.67-5.46-2.31-1.26-4.9-2.1-7.77-2.52-2.87-.42-5.71-.63-8.5-.63-7.56,0-13.86,1.44-18.9,4.3-5.04,2.87-7.77,8.29-8.19,16.28h-17.85c.28-6.72,1.68-12.39,4.2-17.01,2.52-4.62,5.88-8.36,10.08-11.24,4.2-2.87,8.99-4.94,14.38-6.2,5.39-1.26,11.16-1.89,17.33-1.89,4.9,0,9.76.35,14.59,1.05s9.2,2.13,13.12,4.29c3.92,2.17,7.07,5.2,9.45,9.12,2.38,3.91,3.57,9.01,3.57,15.29v55.74c0,4.19.24,7.26.73,9.22.49,1.96,2.13,2.93,4.94,2.93,1.54,0,3.36-.28,5.46-.84v13.86ZM301.04,434.97c-2.24,1.67-5.18,2.89-8.82,3.66-3.64.77-7.46,1.39-11.45,1.88-3.99.49-8.02,1.05-12.08,1.67-4.06.63-7.7,1.64-10.92,3.03-3.22,1.39-5.85,3.38-7.88,5.96-2.03,2.58-3.04,6.1-3.04,10.55,0,2.93.59,5.4,1.79,7.42,1.19,2.02,2.73,3.66,4.62,4.91,1.89,1.25,4.09,2.16,6.62,2.72,2.52.56,5.18.83,7.98.83,5.88,0,10.92-.8,15.12-2.4s7.63-3.62,10.29-6.06c2.66-2.44,4.62-5.09,5.88-7.94s1.89-5.54,1.89-8.05v-18.18Z"/>
        <path class="cls-4" d="M428.09,521.7c-8.12,8.82-20.86,13.23-38.22,13.23-5.04,0-10.19-.56-15.44-1.68-5.25-1.12-10.01-2.94-14.28-5.46-4.27-2.52-7.81-5.81-10.61-9.87-2.8-4.06-4.34-9.03-4.62-14.91h17.85c.14,3.22,1.15,5.95,3.04,8.19,1.89,2.24,4.2,4.06,6.93,5.46,2.73,1.4,5.7,2.42,8.92,3.04,3.22.63,6.3.95,9.24.95,5.88,0,10.85-1.02,14.91-3.04,4.06-2.03,7.42-4.83,10.08-8.4,2.66-3.57,4.58-7.88,5.77-12.92,1.19-5.04,1.79-10.57,1.79-16.59v-7.14h-.42c-3.08,6.72-7.74,11.66-13.96,14.81-6.23,3.15-12.85,4.72-19.84,4.72-8.12,0-15.19-1.47-21.21-4.41-6.02-2.94-11.06-6.89-15.12-11.86-4.06-4.97-7.11-10.78-9.13-17.43-2.03-6.65-3.05-13.68-3.05-21.1,0-6.44.84-13.05,2.52-19.85,1.68-6.79,4.48-12.95,8.4-18.48,3.92-5.53,9.1-10.08,15.54-13.65,6.44-3.57,14.35-5.35,23.73-5.35,6.86,0,13.16,1.51,18.9,4.51,5.74,3.01,10.22,7.53,13.44,13.54h.21v-15.54h16.8v99.33c0,17.78-4.06,31.08-12.18,39.9ZM405.3,472.88c4.13-2.45,7.46-5.67,9.98-9.66,2.52-3.99,4.37-8.5,5.56-13.54,1.19-5.04,1.79-10.08,1.79-15.12,0-4.76-.56-9.45-1.68-14.07-1.12-4.62-2.91-8.78-5.36-12.5-2.45-3.71-5.64-6.68-9.55-8.93-3.92-2.24-8.68-3.36-14.28-3.36s-10.64,1.09-14.7,3.25c-4.06,2.17-7.39,5.08-9.97,8.71-2.59,3.64-4.48,7.84-5.67,12.6-1.19,4.76-1.79,9.73-1.79,14.91,0,4.9.49,9.8,1.47,14.7.98,4.9,2.66,9.34,5.04,13.33,2.38,3.99,5.53,7.21,9.45,9.66,3.92,2.45,8.82,3.67,14.7,3.67s10.88-1.22,15.01-3.67Z"/>
        <path class="cls-4" d="M544,484.11c-8.12,6.16-18.34,9.24-30.66,9.24-8.68,0-16.21-1.4-22.57-4.2-6.37-2.8-11.73-6.72-16.07-11.76-4.34-5.04-7.6-11.06-9.76-18.06-2.17-7-3.4-14.63-3.68-22.89,0-8.26,1.26-15.82,3.78-22.68,2.52-6.86,6.05-12.81,10.61-17.85,4.55-5.04,9.94-8.96,16.17-11.76,6.23-2.8,13.05-4.2,20.47-4.2,9.66,0,17.67,2,24.04,5.98,6.37,3.99,11.48,9.07,15.33,15.23,3.85,6.16,6.51,12.88,7.98,20.16,1.47,7.28,2.06,14.21,1.79,20.79h-81.27c-.14,4.76.42,9.28,1.68,13.54,1.26,4.27,3.29,8.05,6.09,11.34,2.8,3.29,6.37,5.92,10.71,7.88,4.34,1.96,9.45,2.94,15.33,2.94,7.56,0,13.76-1.75,18.59-5.25,4.83-3.5,8.01-8.82,9.55-15.96h17.64c-2.38,12.18-7.63,21.35-15.75,27.51ZM539.7,414.39c-1.61-3.78-3.78-7.03-6.51-9.76-2.73-2.73-5.95-4.9-9.66-6.51-3.71-1.61-7.81-2.42-12.29-2.42s-8.79.81-12.5,2.42c-3.71,1.61-6.9,3.82-9.55,6.62-2.66,2.8-4.76,6.06-6.3,9.76-1.54,3.71-2.45,7.67-2.73,11.87h62.37c-.28-4.2-1.23-8.19-2.83-11.97Z"/>
      </g>
    </g>
  </g>
</svg>